<?xml version="1.0" encoding="UTF-8"?>
<svg version="1.1" xmlns="http://www.w3.org/2000/svg" width="72" height="72">
<path d="M0 0 C23.76 0 47.52 0 72 0 C72 23.76 72 47.52 72 72 C48.24 72 24.48 72 0 72 C0 48.24 0 24.48 0 0 Z " fill="#7A3BE8" transform="translate(0,0)"/>
<path d="M0 0 C5.16452618 3.95794661 7.68972651 7.24035846 8.56640625 13.6796875 C8.92636664 20.80230803 8.4096355 25.99860311 3.88671875 31.66015625 C-0.35172761 35.93619415 -3.80284733 37.63579399 -9.875 37.875 C-15.87319986 37.60194083 -20.11845098 35.95984248 -24.6875 32 C-28.68954471 27.31189048 -29.23881794 23.6567216 -29.25 17.5625 C-29.27449219 16.86769531 -29.29898437 16.17289063 -29.32421875 15.45703125 C-29.3581758 9.4466342 -27.36819571 6.06158848 -23.3125 1.79296875 C-16.45977155 -3.77487312 -7.6607339 -4.76105115 0 0 Z " fill="#F9F6FE" transform="translate(46.875,18.5625)"/>
<path d="M0 0 C0.08086376 2.93804996 0.1404283 5.87388075 0.1875 8.8125 C0.21263672 9.64587891 0.23777344 10.47925781 0.26367188 11.33789062 C0.27333984 12.14033203 0.28300781 12.94277344 0.29296875 13.76953125 C0.3086792 14.50792236 0.32438965 15.24631348 0.34057617 16.00708008 C-0.10084949 18.59013215 -0.95905173 19.40032188 -3 21 C-5.32057967 21.97955503 -7.68090483 22.86736433 -10.0625 23.6875 C-10.69994141 23.91244141 -11.33738281 24.13738281 -11.99414062 24.36914062 C-16.69835201 26 -16.69835201 26 -19 26 C-19.05791844 22.87507749 -19.09356746 19.75029234 -19.125 16.625 C-19.14175781 15.73554687 -19.15851562 14.84609375 -19.17578125 13.9296875 C-19.18222656 13.07890625 -19.18867188 12.228125 -19.1953125 11.3515625 C-19.20578613 10.56604004 -19.21625977 9.78051758 -19.22705078 8.97119141 C-19 7 -19 7 -17 5 C-14.50566841 4.05604424 -12.0354933 3.19014925 -9.5 2.375 C-8.81035156 2.14554688 -8.12070312 1.91609375 -7.41015625 1.6796875 C-2.28111049 0 -2.28111049 0 0 0 Z " fill="#7E41E8" transform="translate(46,23)"/>
</svg>
